<svg xmlns="http://www.w3.org/2000/svg" viewBox="0 0 14 30.64"><title>z-acessorios</title><g id="Camada_2" data-name="Camada 2"><g id="Camada_1-2" data-name="Camada 1"><path d="M1.4,4.08V7.5A3.32,3.32,0,0,0,0,10.2v6.16a.64.64,0,0,0,.21.48L.33,17a2,2,0,0,1,0,2.88L.21,20a.64.64,0,0,0-.21.48v6.8a3.45,3.45,0,0,0,3.5,3.4h7a3.45,3.45,0,0,0,3.5-3.4v-6.8a.64.64,0,0,0-.21-.48l-.12-.12a2,2,0,0,1,0-2.88l.12-.12a.64.64,0,0,0,.21-.48V10.2a3.32,3.32,0,0,0-1.4-2.7V4.08m-9.8,0A4.14,4.14,0,0,1,7,0a4.14,4.14,0,0,1,4.2,4.08V6.8H9.8v-2a.69.69,0,0,0-.7-.68V3.4a2.1,2.1,0,0,0-4.2,0v.68a.69.69,0,0,0-.7.68v2H2.8ZM8.4,5.44V6.8H5.6V5.44ZM6.3,4.08V3.4a.7.7,0,0,1,1.4,0v.68ZM1.4,10.2a2.07,2.07,0,0,1,2.1-2h7a2.07,2.07,0,0,1,2.1,2v2H10.5v-2a.7.7,0,0,0-1.4,0v2H7.7v-2a.7.7,0,0,0-1.4,0v2H4.9v-2a.7.7,0,0,0-1.4,0v2H1.4Zm0,10.52a3.34,3.34,0,0,0,0-4.64V13.6H12.6v2.48a3.34,3.34,0,0,0,0,4.64v6.52a2.07,2.07,0,0,1-2.1,2h-7a2.07,2.07,0,0,1-2.1-2Z"/></g></g></svg>