<svg xmlns="http://www.w3.org/2000/svg" viewBox="0 0 20.94 18.03"><title>z-box</title><g id="Camada_2" data-name="Camada 2"><g id="Camada_1-2" data-name="Camada 1"><path d="M19.36.63a1.11,1.11,0,0,0-1-.63h-13a1.11,1.11,0,0,0-1,.63L2.75,3.13v7a4,4,0,1,0,4.78,5.74h11.2a2.22,2.22,0,0,0,2.21-2.22V3.14Zm-1,.35c.09,0,.14.11.18.17l1.18,1.94H13.53L13.22,1ZM11.3,1h1.15l.3,2.11H11Zm1.52,3.09V6.31l-.94-.51-.94.51V4.07ZM5.15,1.15c0-.06.08-.17.18-.17h5.2l-.3,2.11H3.93ZM4,17.05A3.06,3.06,0,1,1,7,14,3,3,0,0,1,4,17.05Zm16-3.36a1.25,1.25,0,0,1-1.24,1.24H7.9A4.08,4.08,0,0,0,8,14a4,4,0,0,0-4.29-4V4.07h6.45V7.59l1.71-.92,1.7.92V4.07H20Zm-8.38-2.91h3.66a.28.28,0,0,0,0-.56H11.59A.28.28,0,0,0,11.59,10.78Zm0,1.82h5.06a.28.28,0,0,0,0-.56H11.59A.28.28,0,0,0,11.59,12.6Zm6,0h.89a.28.28,0,0,0,0-.56h-.89A.28.28,0,0,0,17.55,12.6Zm-12.34,0L3.48,14.35l-.68-.68a.48.48,0,1,0-.68.69l1,1a.48.48,0,0,0,.7,0L5.9,13.31C6.35,12.85,5.66,12.15,5.21,12.61Z"/></g></g></svg>