<svg xmlns="http://www.w3.org/2000/svg" viewBox="0 0 15.01 19"><title>z-cart</title><g id="Camada_2" data-name="Camada 2"><g id="Camada_1-2" data-name="Camada 1"><path d="M14.42,4.93H11.84V4.35a4.32,4.32,0,1,0-8.64,0v.58H.62A.6.6,0,0,0,0,5.54V17.41A1.59,1.59,0,0,0,1.59,19H13.41A1.59,1.59,0,0,0,15,17.41V5.52A.55.55,0,0,0,14.42,4.93Zm-10-.6a3.08,3.08,0,1,1,6.16,0V4.9H4.44Zm9,13.43H1.61a.37.37,0,0,1-.37-.37V6.14h2v3.4a.62.62,0,0,0,1.24,0V6.14H10.6v3.4a.62.62,0,0,0,1.24,0V6.14h2V17.39A.36.36,0,0,1,13.43,17.76Z"/></g></g></svg>