<svg xmlns="http://www.w3.org/2000/svg" viewBox="0 0 17 18"><title>z-discount</title><g id="Camada_2" data-name="Camada 2"><g id="Camada_1-2" data-name="Camada 1"><path d="M15.78,3.64,9.72.31a2.57,2.57,0,0,0-2.44,0L1.22,3.64A2.33,2.33,0,0,0,0,5.66v6.67a2.35,2.35,0,0,0,1.22,2l6.06,3.33A2.46,2.46,0,0,0,8.5,18a2.57,2.57,0,0,0,1.22-.31l6.06-3.33a2.35,2.35,0,0,0,1.22-2V5.66A2.33,2.33,0,0,0,15.78,3.64Zm-.2,8.69a1,1,0,0,1-.51.85L9,16.52a1.08,1.08,0,0,1-1,0L1.93,13.18a1,1,0,0,1-.51-.85V5.66a1,1,0,0,1,.51-.84L8,1.48a1.07,1.07,0,0,1,1,0l6.06,3.34a1,1,0,0,1,.51.84v6.67Zm-4-6.46-7,5.19a.66.66,0,0,0-.12.95.73.73,0,0,0,.56.26.69.69,0,0,0,.43-.14l7-5.19a.66.66,0,0,0,.13-1A.72.72,0,0,0,11.59,5.87ZM7,8.09A2,2,0,0,0,8.4,7.54,1.82,1.82,0,0,0,9,6.2a1.84,1.84,0,0,0-.57-1.33A2,2,0,0,0,7,4.32a2,2,0,0,0-1.4.55,1.83,1.83,0,0,0,0,2.67A2,2,0,0,0,7,8.09Zm-.4-2.26a.57.57,0,0,1,.79,0,.49.49,0,0,1,.16.37.49.49,0,0,1-.16.38.6.6,0,0,1-.79,0,.53.53,0,0,1-.16-.38A.52.52,0,0,1,6.61,5.83ZM10,9.9a2,2,0,0,0-1.4.56A1.83,1.83,0,0,0,8,11.79a1.86,1.86,0,0,0,.58,1.34,2.06,2.06,0,0,0,2.8,0A1.82,1.82,0,0,0,12,11.79a1.8,1.8,0,0,0-.58-1.33A2,2,0,0,0,10,9.9Zm.4,2.27a.6.6,0,0,1-.79,0,.5.5,0,0,1-.17-.38.5.5,0,0,1,.17-.37.55.55,0,0,1,.39-.16.59.59,0,0,1,.4.16.52.52,0,0,1,.16.37A.53.53,0,0,1,10.39,12.17Z"/></g></g></svg>