<svg xmlns="http://www.w3.org/2000/svg" viewBox="0 0 24 18"><title>z-email</title><g id="Camada_2" data-name="Camada 2"><g id="Camada_1-2" data-name="Camada 1"><path d="M21.75,0a2.15,2.15,0,0,1,1.59.66A2.14,2.14,0,0,1,24,2.25v13.5A2.25,2.25,0,0,1,21.75,18H2.25a2.14,2.14,0,0,1-1.59-.66A2.15,2.15,0,0,1,0,15.75V2.25A2.14,2.14,0,0,1,.66.66,2.14,2.14,0,0,1,2.25,0Zm0,2.25H2.25V4.17c1.09.88,3.2,2.53,6.33,5L9,9.52a10.91,10.91,0,0,0,1.5,1.12,2.8,2.8,0,0,0,1.5.61,2.8,2.8,0,0,0,1.5-.61A12.29,12.29,0,0,0,15,9.52l.42-.38c3.13-2.41,5.24-4.06,6.33-5ZM2.25,15.75h19.5V7l-5.44,4.31a13.21,13.21,0,0,1-1.92,1.41A4.71,4.71,0,0,1,12,13.5a5,5,0,0,1-2.44-.75,17.58,17.58,0,0,1-1.92-1.41L2.25,7Z"/></g></g></svg>