<svg xmlns="http://www.w3.org/2000/svg" viewBox="0 0 28.01 28"><title>z-escola</title><g id="Camada_2" data-name="Camada 2"><g id="Camada_1-2" data-name="Camada 1"><path d="M12,3.71H16V2.54a.89.89,0,0,0-.3-.67A1,1,0,0,0,15,1.59H13.07a1.09,1.09,0,0,0-.73.27h0a.89.89,0,0,0-.3.67Zm.37,16v1.14a.85.85,0,0,1-1.7,0V19.71H9.23v2.77h9.56V19.71Zm-4.89-.78h0V16.28a.83.83,0,0,1,.85-.79H19.64a.83.83,0,0,1,.86.79v7a.84.84,0,0,1-.86.8H8.37a.83.83,0,0,1-.85-.8Zm1.71-.81h9.56v-1H9.23Zm9.39-5.81a.86.86,0,0,1-1.71,0v-.5H11.1v.5a.82.82,0,0,1-.85.79.83.83,0,0,1-.86-.79v-.57A4.83,4.83,0,0,1,7,10.55a4.23,4.23,0,0,1-.85-1.08,7.44,7.44,0,0,0-.67,3.06V24.59A1.78,1.78,0,0,0,6,25.88H6a2,2,0,0,0,1.39.53H20.58A2,2,0,0,0,22,25.88h0a1.79,1.79,0,0,0,.58-1.29V12.53a7.45,7.45,0,0,0-.68-3.06A4.23,4.23,0,0,1,21,10.55a4.79,4.79,0,0,1-2.4,1.19Zm-1.71-2.09V9.69a.86.86,0,0,1,1.71,0v.42a3.1,3.1,0,0,0,1.2-.68,2.58,2.58,0,0,0,.85-1.87A5.58,5.58,0,0,0,16.83,5.3H11.19A5.54,5.54,0,0,0,7.35,7.56,2.55,2.55,0,0,0,8.2,9.43a3.06,3.06,0,0,0,1.19.68V9.69a.84.84,0,0,1,.86-.8.83.83,0,0,1,.85.8v.53Zm7.35,2.31v3.25a4.67,4.67,0,0,1,2.48,1.15A4,4,0,0,1,28,20v1.77a2.45,2.45,0,0,1-.8,1.8h0a2.84,2.84,0,0,1-1.92.74h-1v.3A3.31,3.31,0,0,1,23.18,27h0a3.78,3.78,0,0,1-2.59,1H7.43a3.82,3.82,0,0,1-2.6-1h0a3.29,3.29,0,0,1-1.08-2.41v-.3h-1a2.84,2.84,0,0,1-1.92-.74h0a2.49,2.49,0,0,1-.8-1.8V20a4,4,0,0,1,1.27-3.05,4.66,4.66,0,0,1,2.49-1.15V12.53A9.34,9.34,0,0,1,5.94,6.66a8,8,0,0,1,4.39-2.87V2.54A2.42,2.42,0,0,1,11.14.75h0A2.83,2.83,0,0,1,13.07,0H15a2.85,2.85,0,0,1,1.93.75,2.44,2.44,0,0,1,.8,1.79V3.79a8,8,0,0,1,4.39,2.87A9.35,9.35,0,0,1,24.26,12.53Zm0,10.17h1a1.1,1.1,0,0,0,.73-.28h0a.89.89,0,0,0,.3-.67V20a2.53,2.53,0,0,0-.76-1.93,2.84,2.84,0,0,0-1.28-.65Zm-21.53,0h1V17.4a2.82,2.82,0,0,0-1.29.65A2.53,2.53,0,0,0,1.71,20v1.77a.93.93,0,0,0,.3.67H2A1.06,1.06,0,0,0,2.73,22.7Z"/></g></g></svg>