<svg xmlns="http://www.w3.org/2000/svg" viewBox="0 0 14 14"><title>z-facebook</title><g id="Camada_2" data-name="Camada 2"><g id="Camada_1-2" data-name="Camada 1"><path d="M14,1.5A1.44,1.44,0,0,0,13.56.44,1.44,1.44,0,0,0,12.5,0H1.5A1.44,1.44,0,0,0,.44.44,1.44,1.44,0,0,0,0,1.5v11a1.44,1.44,0,0,0,.44,1.06A1.44,1.44,0,0,0,1.5,14H7.66V8.47H5.75V6.34H7.66V4.78a2.78,2.78,0,0,1,.73-2.05,2.68,2.68,0,0,1,2-.73A12.27,12.27,0,0,1,12,2.09V4H10.88a1.09,1.09,0,0,0-.85.28A1.29,1.29,0,0,0,9.84,5V6.34H12l-.28,2.13H9.84V14H12.5A1.5,1.5,0,0,0,14,12.5Z"/></g></g></svg>