<svg xmlns="http://www.w3.org/2000/svg" viewBox="0 0 14 14"><title>z-instagram</title><g id="Camada_2" data-name="Camada 2"><g id="Camada_1-2" data-name="Camada 1"><path d="M7,3.41a3.54,3.54,0,0,1,1.8.48A3.58,3.58,0,0,1,10.11,5.2a3.62,3.62,0,0,1,0,3.6A3.58,3.58,0,0,1,8.8,10.11a3.61,3.61,0,0,1-3.6,0A3.58,3.58,0,0,1,3.89,8.8a3.62,3.62,0,0,1,0-3.6A3.58,3.58,0,0,1,5.2,3.89,3.54,3.54,0,0,1,7,3.41ZM7,9.34A2.32,2.32,0,0,0,9.34,7,2.32,2.32,0,0,0,7,4.66,2.32,2.32,0,0,0,4.66,7,2.32,2.32,0,0,0,7,9.34Zm4.59-6.09a.78.78,0,0,0-.25-.59.82.82,0,0,0-1.18,0,.78.78,0,0,0-.25.59.78.78,0,0,0,.25.59.78.78,0,0,0,.59.25.76.76,0,0,0,.58-.25A1,1,0,0,0,11.59,3.25ZM14,4.09Q14,5,14,7c0,1.35,0,2.33-.05,2.92a6.1,6.1,0,0,1-.26,1.55,3.66,3.66,0,0,1-2.22,2.22A6.1,6.1,0,0,1,9.92,14C9.33,14,8.35,14,7,14S4.67,14,4.08,14a5.28,5.28,0,0,1-1.55-.29,3.47,3.47,0,0,1-1.36-.83,3.79,3.79,0,0,1-.86-1.36A6.1,6.1,0,0,1,.05,9.92C0,9.33,0,8.35,0,7S0,4.67.05,4.08A6.1,6.1,0,0,1,.31,2.53a3.79,3.79,0,0,1,.86-1.36A3.79,3.79,0,0,1,2.53.31,6.1,6.1,0,0,1,4.08.05C4.67,0,5.65,0,7,0S9.33,0,9.92.05a6.1,6.1,0,0,1,1.55.26,3.79,3.79,0,0,1,1.36.86,3.79,3.79,0,0,1,.86,1.36A6.6,6.6,0,0,1,14,4.09Zm-1.5,7a6.63,6.63,0,0,0,.25-1.68c0-.46,0-1.11,0-1.94v-1c0-.85,0-1.5,0-1.94a6.33,6.33,0,0,0-.25-1.68,2.25,2.25,0,0,0-1.35-1.35,6.33,6.33,0,0,0-1.68-.25c-.46,0-1.11,0-1.94,0h-1c-.83,0-1.48,0-1.94,0a6.63,6.63,0,0,0-1.68.25A2.25,2.25,0,0,0,1.53,2.88a6.33,6.33,0,0,0-.25,1.68c0,.46,0,1.11,0,1.94v1c0,.83,0,1.48,0,1.94a6.63,6.63,0,0,0,.25,1.68,2.36,2.36,0,0,0,1.35,1.35,6.63,6.63,0,0,0,1.68.25c.46,0,1.11,0,1.94,0h1c.85,0,1.5,0,1.94,0a6.33,6.33,0,0,0,1.68-.25A2.36,2.36,0,0,0,12.47,11.12Z"/></g></g></svg>