<svg xmlns="http://www.w3.org/2000/svg" viewBox="0 0 18 28"><title>z-malas</title><g id="Camada_2" data-name="Camada 2"><g id="Camada_1-2" data-name="Camada 1"><path d="M14.86,3.73H12.57V1.43h1.57a.72.72,0,1,0,0-1.43H3.86a.72.72,0,1,0,0,1.43H5.14v2.3h-2A3.15,3.15,0,0,0,0,6.89V23.41a3.16,3.16,0,0,0,3.14,3.16H4.67a1,1,0,0,0-.1.43,1,1,0,0,0,2,0,.91.91,0,0,0-.1-.43h4.77a1,1,0,0,0-.1.43,1,1,0,0,0,2,0,.91.91,0,0,0-.1-.43h1.82A3.16,3.16,0,0,0,18,23.41V6.89A3.15,3.15,0,0,0,14.86,3.73ZM3.14,25.13a1.72,1.72,0,0,1-1.71-1.72V6.89A1.72,1.72,0,0,1,3.14,5.17h.15V25a.66.66,0,0,0,0,.14Zm1.56,0a.66.66,0,0,0,0-.14V5.17h2V25a.68.68,0,0,0,0,.14Zm3.43,0a.66.66,0,0,0,0-.14V5.17H9.86V25a.33.33,0,0,0,0,.14ZM6.57,3.73V1.43h4.57v2.3Zm4.7,21.4a.33.33,0,0,0,0-.14V5.17h2v20Zm5.3-1.72a1.72,1.72,0,0,1-1.71,1.72H14.7v-20h.16a1.72,1.72,0,0,1,1.71,1.72Z"/></g></g></svg>