<svg xmlns="http://www.w3.org/2000/svg" viewBox="0 0 27 28"><title>z-mochilas</title><g id="Camada_2" data-name="Camada 2"><g id="Camada_1-2" data-name="Camada 1"><path d="M20.52,15.28H6.37a.55.55,0,0,0-.58.59v2.86a.55.55,0,0,0,.58.58H7v5a.55.55,0,0,0,.59.58H19.29a.55.55,0,0,0,.58-.58v-5h.65a.55.55,0,0,0,.58-.58V15.87A.55.55,0,0,0,20.52,15.28Zm-1.82,8.4H8.18V19.31H18.7Zm1.23-5.54H7V16.45h13ZM19.35,7.06H7.54A1.72,1.72,0,0,0,5.79,8.81v3.85a.55.55,0,0,0,.58.58H20.52a.55.55,0,0,0,.58-.58V8.81A1.76,1.76,0,0,0,19.35,7.06Zm.58,5H7V8.81a.55.55,0,0,1,.58-.58H19.35a.55.55,0,0,1,.58.58Zm3.74,2.62V6.07a2.34,2.34,0,0,0-2.33-2.34H17.77V2.33A2.34,2.34,0,0,0,15.43,0H11.52A2.34,2.34,0,0,0,9.18,2.33v1.4H5.61A2.35,2.35,0,0,0,3.27,6.07V14.7A3.57,3.57,0,0,0,0,18.26v3.56a3.62,3.62,0,0,0,3.27,3.56v.29A2.35,2.35,0,0,0,5.61,28H21.39a2.34,2.34,0,0,0,2.34-2.33v-.35A3.57,3.57,0,0,0,27,21.76V18.2A3.6,3.6,0,0,0,23.67,14.7ZM3.21,24.15a2.41,2.41,0,0,1-2.1-2.39V18.2a2.41,2.41,0,0,1,2.1-2.39ZM10.29,2.33a1.16,1.16,0,0,1,1.17-1.16h3.91a1.16,1.16,0,0,1,1.17,1.16v1.4H10.29ZM22.5,25.67a1.16,1.16,0,0,1-1.16,1.16H5.55a1.17,1.17,0,0,1-1.17-1.16V6.07A1.18,1.18,0,0,1,5.55,4.9H21.34A1.17,1.17,0,0,1,22.5,6.07Zm3.28-3.85a2.46,2.46,0,0,1-2.11,2.39V15.87a2.4,2.4,0,0,1,2.11,2.39Z"/></g></g></svg>