<svg xmlns="http://www.w3.org/2000/svg" viewBox="0 0 21.31 21.31"><title>z-next</title><g id="Camada_2" data-name="Camada 2"><g id="Camada_1-2" data-name="Camada 1"><path d="M21.31,10.66A10.29,10.29,0,0,1,19.87,16,10.67,10.67,0,0,1,16,19.87a10.29,10.29,0,0,1-5.32,1.44,10.32,10.32,0,0,1-5.33-1.44A10.75,10.75,0,0,1,1.44,16,10.29,10.29,0,0,1,0,10.66,10.32,10.32,0,0,1,1.44,5.33,10.82,10.82,0,0,1,5.33,1.44,10.32,10.32,0,0,1,10.66,0,10.29,10.29,0,0,1,16,1.44a10.75,10.75,0,0,1,3.89,3.89A10.32,10.32,0,0,1,21.31,10.66Zm-19.25,0A8.35,8.35,0,0,0,3.22,15a8.67,8.67,0,0,0,3.14,3.14,8.53,8.53,0,0,0,8.59,0A8.6,8.6,0,0,0,18.09,15a8.53,8.53,0,0,0,0-8.59A8.67,8.67,0,0,0,15,3.22a8.53,8.53,0,0,0-8.59,0A8.75,8.75,0,0,0,3.22,6.36,8.38,8.38,0,0,0,2.06,10.66Zm3.1.86a.51.51,0,0,0,.51.51h5v2.88a.45.45,0,0,0,.32.47.48.48,0,0,0,.58-.13L15.81,11a.58.58,0,0,0,.13-.38.59.59,0,0,0-.13-.39L11.52,6A.45.45,0,0,0,11,5.93a.46.46,0,0,0-.32.47V9.28h-5a.49.49,0,0,0-.36.15.5.5,0,0,0-.15.37Z"/></g></g></svg>