<svg xmlns="http://www.w3.org/2000/svg" viewBox="0 0 18.69 18.7"><title>z-phone</title><g id="Camada_2" data-name="Camada 2"><g id="Camada_1-2" data-name="Camada 1"><path d="M15.9,2.71a9.53,9.53,0,0,1,2.06,3,8.71,8.71,0,0,1,.73,3.52,8.87,8.87,0,0,1-1.27,4.64A9.63,9.63,0,0,1,14,17.28a9.11,9.11,0,0,1-4.65,1.25h0A9.07,9.07,0,0,1,4.92,17.4L0,18.7l1.34-4.8A9,9,0,0,1,.08,9.26,8.92,8.92,0,0,1,1.34,4.63,9.36,9.36,0,0,1,4.72,1.25,9.15,9.15,0,0,1,12.87.71,9.69,9.69,0,0,1,15.9,2.71ZM9.35,17a7.55,7.55,0,0,0,3.88-1,7.89,7.89,0,0,0,2.86-2.82,7.33,7.33,0,0,0,1.06-3.86,7.14,7.14,0,0,0-.63-2.92,8.16,8.16,0,0,0-1.73-2.52,7.63,7.63,0,0,0-2.5-1.69,7.53,7.53,0,0,0-2.94-.59,7.44,7.44,0,0,0-3.86,1A7.83,7.83,0,0,0,2.67,5.4a7.55,7.55,0,0,0-1,3.86,7.36,7.36,0,0,0,1.21,4.09l.16.3-.79,2.83,2.92-.75.29.17A7.5,7.5,0,0,0,9.35,17Zm4.21-5.8.13.09a.7.7,0,0,1,.33.21.89.89,0,0,1,0,.41,2.16,2.16,0,0,1-.16.69,1.75,1.75,0,0,1-.67.71,2.13,2.13,0,0,1-.9.4,4.27,4.27,0,0,1-1.13,0,9.25,9.25,0,0,1-1.67-.59A9.48,9.48,0,0,1,5.63,9.68L5.55,9.6a4.24,4.24,0,0,1-.92-2.38,2.65,2.65,0,0,1,.75-1.88l0,0A.88.88,0,0,1,6.05,5h.5a.54.54,0,0,1,.27.06A.61.61,0,0,1,7,5.38l.71,1.71a.46.46,0,0,1,0,.42,2.87,2.87,0,0,1-.54.75A1,1,0,0,0,7,8.53c0,.07,0,.15.08.23a5.24,5.24,0,0,0,1.38,1.71,10.34,10.34,0,0,0,1.75,1c.23.11.39.09.5,0,.37-.42.62-.73.76-.92s.12-.17.2-.17a1.13,1.13,0,0,1,.3,0C12.2,10.52,12.73,10.77,13.56,11.18Z"/></g></g></svg>