<svg xmlns="http://www.w3.org/2000/svg" viewBox="0 0 21.31 21.31"><title>z-prev</title><g id="Camada_2" data-name="Camada 2"><g id="Camada_1-2" data-name="Camada 1"><path d="M0,10.66A10.32,10.32,0,0,1,1.44,5.33,10.82,10.82,0,0,1,5.33,1.44,10.32,10.32,0,0,1,10.66,0,10.29,10.29,0,0,1,16,1.44a10.75,10.75,0,0,1,3.89,3.89,10.32,10.32,0,0,1,1.44,5.33A10.29,10.29,0,0,1,19.87,16,10.67,10.67,0,0,1,16,19.87a10.29,10.29,0,0,1-5.32,1.44,10.32,10.32,0,0,1-5.33-1.44A10.75,10.75,0,0,1,1.44,16,10.29,10.29,0,0,1,0,10.66Zm19.25,0a8.38,8.38,0,0,0-1.16-4.3A8.67,8.67,0,0,0,15,3.22a8.53,8.53,0,0,0-8.59,0A8.75,8.75,0,0,0,3.22,6.36a8.53,8.53,0,0,0,0,8.59,8.67,8.67,0,0,0,3.14,3.14,8.53,8.53,0,0,0,8.59,0A8.6,8.6,0,0,0,18.09,15,8.35,8.35,0,0,0,19.25,10.66ZM16.16,9.8A.5.5,0,0,0,16,9.43a.51.51,0,0,0-.37-.15h-5V6.4a.47.47,0,0,0-.33-.47A.43.43,0,0,0,9.8,6L5.54,10.27a.54.54,0,0,0-.17.39.42.42,0,0,0,.17.34L9.8,15.25a.41.41,0,0,0,.53.13.46.46,0,0,0,.33-.47V12h5a.51.51,0,0,0,.37-.15.49.49,0,0,0,.15-.36Z"/></g></g></svg>