<svg xmlns="http://www.w3.org/2000/svg" viewBox="0 0 16 16"><title>z-search</title><g id="Camada_2" data-name="Camada 2"><g id="Camada_1-2" data-name="Camada 1"><path d="M15.78,13.84a.76.76,0,0,1,0,1.07l-.87.87a.76.76,0,0,1-1.07,0l-3.12-3.12a.73.73,0,0,1-.22-.54v-.5A6.29,6.29,0,0,1,6.5,13a6.26,6.26,0,0,1-3.27-.88A6.56,6.56,0,0,1,.87,9.77,6.35,6.35,0,0,1,0,6.5,6.35,6.35,0,0,1,.87,3.23,6.56,6.56,0,0,1,3.23.88,6.26,6.26,0,0,1,6.5,0,6.26,6.26,0,0,1,9.77.88a6.46,6.46,0,0,1,2.35,2.35A6.26,6.26,0,0,1,13,6.5a6.29,6.29,0,0,1-1.38,4h.5a.73.73,0,0,1,.54.22ZM6.5,10.5A4,4,0,0,0,8.52,3a4,4,0,0,0-4,6.94A4,4,0,0,0,6.5,10.5Z"/></g></g></svg>