<svg class="svg-sprites" id="skin-sprite" xmlns="http://www.w3.org/2000/svg" xmlns:xlink="http://www.w3.org/1999/xlink">
    <symbol viewBox="0 0 14 30.64" id="z-acessorios" xmlns="http://www.w3.org/2000/svg"><g data-name="Camada 2"><path d="M1.4 4.08V7.5A3.32 3.32 0 000 10.2v6.16a.64.64 0 00.21.48l.12.16a2 2 0 010 2.88L.21 20a.64.64 0 00-.21.48v6.8a3.45 3.45 0 003.5 3.4h7a3.45 3.45 0 003.5-3.4v-6.8a.64.64 0 00-.21-.48l-.12-.12a2 2 0 010-2.88l.12-.12a.64.64 0 00.21-.48v-6.2a3.32 3.32 0 00-1.4-2.7V4.08m-9.8 0A4.14 4.14 0 017 0a4.14 4.14 0 014.2 4.08V6.8H9.8v-2a.69.69 0 00-.7-.68V3.4a2.1 2.1 0 00-4.2 0v.68a.69.69 0 00-.7.68v2H2.8zm5.6 1.36V6.8H5.6V5.44zM6.3 4.08V3.4a.7.7 0 011.4 0v.68zM1.4 10.2a2.07 2.07 0 012.1-2h7a2.07 2.07 0 012.1 2v2h-2.1v-2a.7.7 0 00-1.4 0v2H7.7v-2a.7.7 0 00-1.4 0v2H4.9v-2a.7.7 0 00-1.4 0v2H1.4zm0 10.52a3.34 3.34 0 000-4.64V13.6h11.2v2.48a3.34 3.34 0 000 4.64v6.52a2.07 2.07 0 01-2.1 2h-7a2.07 2.07 0 01-2.1-2z" data-name="Camada 1"/></g></symbol>
    <symbol viewBox="0 0 20.94 18.03" id="z-box" xmlns="http://www.w3.org/2000/svg"><g data-name="Camada 2"><path d="M19.36.63a1.11 1.11 0 00-1-.63h-13a1.11 1.11 0 00-1 .63l-1.61 2.5v7a4 4 0 104.78 5.74h11.2a2.22 2.22 0 002.21-2.22V3.14zm-1 .35c.09 0 .14.11.18.17l1.18 1.94h-6.19L13.22 1zM11.3 1h1.15l.3 2.11H11zm1.52 3.09v2.22l-.94-.51-.94.51V4.07zM5.15 1.15c0-.06.08-.17.18-.17h5.2l-.3 2.11h-6.3zM4 17.05A3.06 3.06 0 117 14a3 3 0 01-3 3.05zm16-3.36a1.25 1.25 0 01-1.24 1.24H7.9A4.08 4.08 0 008 14a4 4 0 00-4.29-4V4.07h6.45v3.52l1.71-.92 1.7.92V4.07H20zm-8.38-2.91h3.66a.28.28 0 000-.56h-3.69a.28.28 0 000 .56zm0 1.82h5.06a.28.28 0 000-.56h-5.09a.28.28 0 000 .56zm6 0h.89a.28.28 0 000-.56h-.89a.28.28 0 00-.07.56zm-12.34 0l-1.8 1.75-.68-.68a.48.48 0 10-.68.69l1 1a.48.48 0 00.7 0l2.08-2.05c.45-.46-.24-1.16-.69-.7z" data-name="Camada 1"/></g></symbol>
    <symbol viewBox="0 0 15.01 19" id="z-cart" xmlns="http://www.w3.org/2000/svg"><g data-name="Camada 2"><path d="M14.42 4.93h-2.58v-.58a4.32 4.32 0 10-8.64 0v.58H.62a.6.6 0 00-.62.61v11.87A1.59 1.59 0 001.59 19h11.82A1.59 1.59 0 0015 17.41V5.52a.55.55 0 00-.58-.59zm-10-.6a3.08 3.08 0 116.16 0v.57H4.44zm9 13.43H1.61a.37.37 0 01-.37-.37V6.14h2v3.4a.62.62 0 001.24 0v-3.4h6.12v3.4a.62.62 0 001.24 0v-3.4h2v11.25a.36.36 0 01-.41.37z" data-name="Camada 1"/></g></symbol>
    <symbol viewBox="0 0 17 18" id="z-discount" xmlns="http://www.w3.org/2000/svg"><g data-name="Camada 2"><path d="M15.78 3.64L9.72.31a2.57 2.57 0 00-2.44 0L1.22 3.64A2.33 2.33 0 000 5.66v6.67a2.35 2.35 0 001.22 2l6.06 3.33A2.46 2.46 0 008.5 18a2.57 2.57 0 001.22-.31l6.06-3.33a2.35 2.35 0 001.22-2v-6.7a2.33 2.33 0 00-1.22-2.02zm-.2 8.69a1 1 0 01-.51.85L9 16.52a1.08 1.08 0 01-1 0l-6.07-3.34a1 1 0 01-.51-.85V5.66a1 1 0 01.51-.84L8 1.48a1.07 1.07 0 011 0l6.06 3.34a1 1 0 01.51.84v6.67zm-4-6.46l-7 5.19a.66.66 0 00-.12.95.73.73 0 00.56.26.69.69 0 00.43-.14l7-5.19a.66.66 0 00.13-1 .72.72 0 00-.99-.07zM7 8.09a2 2 0 001.4-.55A1.82 1.82 0 009 6.2a1.84 1.84 0 00-.57-1.33A2 2 0 007 4.32a2 2 0 00-1.4.55 1.83 1.83 0 000 2.67 2 2 0 001.4.55zm-.4-2.26a.57.57 0 01.79 0 .49.49 0 01.16.37.49.49 0 01-.16.38.6.6 0 01-.79 0 .53.53 0 01-.16-.38.52.52 0 01.17-.37zM10 9.9a2 2 0 00-1.4.56 1.83 1.83 0 00-.6 1.33 1.86 1.86 0 00.58 1.34 2.06 2.06 0 002.8 0 1.82 1.82 0 00.62-1.34 1.8 1.8 0 00-.58-1.33A2 2 0 0010 9.9zm.4 2.27a.6.6 0 01-.79 0 .5.5 0 01-.17-.38.5.5 0 01.17-.37.55.55 0 01.39-.16.59.59 0 01.4.16.52.52 0 01.16.37.53.53 0 01-.17.38z" data-name="Camada 1"/></g></symbol>
    <symbol viewBox="0 0 24 18" id="z-email" xmlns="http://www.w3.org/2000/svg"><g data-name="Camada 2"><path d="M21.75 0a2.15 2.15 0 011.59.66A2.14 2.14 0 0124 2.25v13.5A2.25 2.25 0 0121.75 18H2.25a2.14 2.14 0 01-1.59-.66A2.15 2.15 0 010 15.75V2.25A2.14 2.14 0 01.66.66 2.14 2.14 0 012.25 0zm0 2.25H2.25v1.92c1.09.88 3.2 2.53 6.33 5l.42.35a10.91 10.91 0 001.5 1.12 2.8 2.8 0 001.5.61 2.8 2.8 0 001.5-.61A12.29 12.29 0 0015 9.52l.42-.38c3.13-2.41 5.24-4.06 6.33-5zm-19.5 13.5h19.5V7l-5.44 4.31a13.21 13.21 0 01-1.92 1.41 4.71 4.71 0 01-2.39.78 5 5 0 01-2.44-.75 17.58 17.58 0 01-1.92-1.41L2.25 7z" data-name="Camada 1"/></g></symbol>
    <symbol viewBox="0 0 28.01 28" id="z-escola" xmlns="http://www.w3.org/2000/svg"><g data-name="Camada 2"><path d="M12 3.71h4V2.54a.89.89 0 00-.3-.67 1 1 0 00-.7-.28h-1.93a1.09 1.09 0 00-.73.27.89.89 0 00-.3.67zm.37 16v1.14a.85.85 0 01-1.7 0v-1.14H9.23v2.77h9.56v-2.77zm-4.89-.78v-2.65a.83.83 0 01.85-.79h11.31a.83.83 0 01.86.79v7a.84.84 0 01-.86.8H8.37a.83.83 0 01-.85-.8zm1.71-.81h9.56v-1H9.23zm9.39-5.81a.86.86 0 01-1.71 0v-.5H11.1v.5a.82.82 0 01-.85.79.83.83 0 01-.86-.79v-.57A4.83 4.83 0 017 10.55a4.23 4.23 0 01-.85-1.08 7.44 7.44 0 00-.67 3.06v12.06A1.78 1.78 0 006 25.88a2 2 0 001.39.53h13.19a2 2 0 001.42-.53 1.79 1.79 0 00.58-1.29V12.53a7.45 7.45 0 00-.68-3.06 4.23 4.23 0 01-.9 1.08 4.79 4.79 0 01-2.4 1.19zm-1.71-2.09v-.53a.86.86 0 011.71 0v.42a3.1 3.1 0 001.2-.68 2.58 2.58 0 00.85-1.87 5.58 5.58 0 00-3.8-2.26h-5.64a5.54 5.54 0 00-3.84 2.26 2.55 2.55 0 00.85 1.87 3.06 3.06 0 001.19.68v-.42a.84.84 0 01.86-.8.83.83 0 01.85.8v.53zm7.35 2.31v3.25a4.67 4.67 0 012.48 1.15A4 4 0 0128 20v1.77a2.45 2.45 0 01-.8 1.8 2.84 2.84 0 01-1.92.74h-1v.3a3.31 3.31 0 01-1.1 2.39 3.78 3.78 0 01-2.59 1H7.43a3.82 3.82 0 01-2.6-1 3.29 3.29 0 01-1.08-2.41v-.3h-1a2.84 2.84 0 01-1.92-.74 2.49 2.49 0 01-.8-1.8V20a4 4 0 011.27-3.05 4.66 4.66 0 012.49-1.15v-3.27a9.34 9.34 0 012.15-5.87 8 8 0 014.39-2.87V2.54a2.42 2.42 0 01.81-1.79A2.83 2.83 0 0113.07 0H15a2.85 2.85 0 011.93.75 2.44 2.44 0 01.8 1.79v1.25a8 8 0 014.39 2.87 9.35 9.35 0 012.14 5.87zm0 10.17h1a1.1 1.1 0 00.73-.28.89.89 0 00.3-.67V20a2.53 2.53 0 00-.76-1.93 2.84 2.84 0 00-1.28-.65zm-21.53 0h1v-5.3a2.82 2.82 0 00-1.29.65A2.53 2.53 0 001.71 20v1.77a.93.93 0 00.3.67H2a1.06 1.06 0 00.73.26z" data-name="Camada 1"/></g></symbol>
    <symbol viewBox="0 0 14 14" id="z-facebook" xmlns="http://www.w3.org/2000/svg"><g data-name="Camada 2"><path d="M14 1.5a1.44 1.44 0 00-.44-1.06A1.44 1.44 0 0012.5 0h-11A1.44 1.44 0 00.44.44 1.44 1.44 0 000 1.5v11a1.44 1.44 0 00.44 1.06A1.44 1.44 0 001.5 14h6.16V8.47H5.75V6.34h1.91V4.78a2.78 2.78 0 01.73-2.05 2.68 2.68 0 012-.73 12.27 12.27 0 011.61.09V4h-1.12a1.09 1.09 0 00-.85.28 1.29 1.29 0 00-.19.72v1.34H12l-.28 2.13H9.84V14h2.66a1.5 1.5 0 001.5-1.5z" data-name="Camada 1"/></g></symbol>
    <symbol viewBox="0 0 14 14" id="z-instagram" xmlns="http://www.w3.org/2000/svg"><g data-name="Camada 2"><path d="M7 3.41a3.54 3.54 0 011.8.48 3.58 3.58 0 011.31 1.31 3.62 3.62 0 010 3.6 3.58 3.58 0 01-1.31 1.31 3.61 3.61 0 01-3.6 0A3.58 3.58 0 013.89 8.8a3.62 3.62 0 010-3.6A3.58 3.58 0 015.2 3.89 3.54 3.54 0 017 3.41zm0 5.93A2.32 2.32 0 009.34 7 2.32 2.32 0 007 4.66 2.32 2.32 0 004.66 7 2.32 2.32 0 007 9.34zm4.59-6.09a.78.78 0 00-.25-.59.82.82 0 00-1.18 0 .78.78 0 00-.25.59.78.78 0 00.25.59.78.78 0 00.59.25.76.76 0 00.58-.25 1 1 0 00.26-.59zm2.41.84V7c0 1.35 0 2.33-.05 2.92a6.1 6.1 0 01-.26 1.55 3.66 3.66 0 01-2.22 2.22 6.1 6.1 0 01-1.55.31H4.08a5.28 5.28 0 01-1.55-.29 3.47 3.47 0 01-1.36-.83 3.79 3.79 0 01-.86-1.36 6.1 6.1 0 01-.26-1.6C0 9.33 0 8.35 0 7s0-2.33.05-2.92a6.1 6.1 0 01.26-1.55 3.79 3.79 0 01.86-1.36A3.79 3.79 0 012.53.31 6.1 6.1 0 014.08.05C4.67 0 5.65 0 7 0s2.33 0 2.92.05a6.1 6.1 0 011.55.26 3.79 3.79 0 011.36.86 3.79 3.79 0 01.86 1.36A6.6 6.6 0 0114 4.09zm-1.5 7a6.63 6.63 0 00.25-1.68V6.47 4.53a6.33 6.33 0 00-.25-1.68 2.25 2.25 0 00-1.35-1.35 6.33 6.33 0 00-1.68-.25H4.59a6.63 6.63 0 00-1.68.25 2.25 2.25 0 00-1.38 1.38 6.33 6.33 0 00-.25 1.68v4.88a6.63 6.63 0 00.25 1.68 2.36 2.36 0 001.35 1.35 6.63 6.63 0 001.68.25h4.88a6.33 6.33 0 001.68-.25 2.36 2.36 0 001.35-1.35z" data-name="Camada 1"/></g></symbol>
    <symbol viewBox="0 0 18 28" id="z-malas" xmlns="http://www.w3.org/2000/svg"><g data-name="Camada 2"><path d="M14.86 3.73h-2.29v-2.3h1.57a.72.72 0 100-1.43H3.86a.72.72 0 100 1.43h1.28v2.3h-2A3.15 3.15 0 000 6.89v16.52a3.16 3.16 0 003.14 3.16h1.53a1 1 0 00-.1.43 1 1 0 002 0 .91.91 0 00-.1-.43h4.77a1 1 0 00-.1.43 1 1 0 002 0 .91.91 0 00-.1-.43h1.82A3.16 3.16 0 0018 23.41V6.89a3.15 3.15 0 00-3.14-3.16zM3.14 25.13a1.72 1.72 0 01-1.71-1.72V6.89a1.72 1.72 0 011.71-1.72h.15V25a.66.66 0 000 .14zm1.56 0a.66.66 0 000-.14V5.17h2V25a.68.68 0 000 .14zm3.43 0a.66.66 0 000-.14V5.17h1.73V25a.33.33 0 000 .14zM6.57 3.73v-2.3h4.57v2.3zm4.7 21.4a.33.33 0 000-.14V5.17h2v20zm5.3-1.72a1.72 1.72 0 01-1.71 1.72h-.16v-20h.16a1.72 1.72 0 011.71 1.72z" data-name="Camada 1"/></g></symbol>
    <symbol viewBox="0 0 9.88 14.4" id="z-map" xmlns="http://www.w3.org/2000/svg"><g data-name="Camada 2"><path d="M4.78 14.31a.17.17 0 00.25.06.13.13 0 00.07-.06l4.08-6.84a4.94 4.94 0 10-8.48 0zM4.94 2.1a2.72 2.72 0 11-2.72 2.72A2.72 2.72 0 014.94 2.1z" data-name="Camada 1"/></g></symbol>
    <symbol viewBox="0 0 15 10" id="z-menu" xmlns="http://www.w3.org/2000/svg"><g data-name="Camada 2"><path d="M14 8H1a1 1 0 000 2h13a1 1 0 000-2zm0-4H1a1 1 0 000 2h13a1 1 0 000-2zM1 2h13a1 1 0 000-2H1a1 1 0 000 2z" fill-rule="evenodd" data-name="Camada 1"/></g></symbol>
    <symbol viewBox="0 0 27 28" id="z-mochilas" xmlns="http://www.w3.org/2000/svg"><g data-name="Camada 2"><path d="M20.52 15.28H6.37a.55.55 0 00-.58.59v2.86a.55.55 0 00.58.58H7v5a.55.55 0 00.59.58h11.7a.55.55 0 00.58-.58v-5h.65a.55.55 0 00.58-.58v-2.86a.55.55 0 00-.58-.59zm-1.82 8.4H8.18v-4.37H18.7zm1.23-5.54H7v-1.69h13zm-.58-11.08H7.54a1.72 1.72 0 00-1.75 1.75v3.85a.55.55 0 00.58.58h14.15a.55.55 0 00.58-.58V8.81a1.76 1.76 0 00-1.75-1.75zm.58 5H7V8.81a.55.55 0 01.58-.58h11.77a.55.55 0 01.58.58zm3.74 2.62V6.07a2.34 2.34 0 00-2.33-2.34h-3.57v-1.4A2.34 2.34 0 0015.43 0h-3.91a2.34 2.34 0 00-2.34 2.33v1.4H5.61a2.35 2.35 0 00-2.34 2.34v8.63A3.57 3.57 0 000 18.26v3.56a3.62 3.62 0 003.27 3.56v.29A2.35 2.35 0 005.61 28h15.78a2.34 2.34 0 002.34-2.33v-.35A3.57 3.57 0 0027 21.76V18.2a3.6 3.6 0 00-3.33-3.5zM3.21 24.15a2.41 2.41 0 01-2.1-2.39V18.2a2.41 2.41 0 012.1-2.39zm7.08-21.82a1.16 1.16 0 011.17-1.16h3.91a1.16 1.16 0 011.17 1.16v1.4h-6.25zM22.5 25.67a1.16 1.16 0 01-1.16 1.16H5.55a1.17 1.17 0 01-1.17-1.16V6.07A1.18 1.18 0 015.55 4.9h15.79a1.17 1.17 0 011.16 1.17zm3.28-3.85a2.46 2.46 0 01-2.11 2.39v-8.34a2.4 2.4 0 012.11 2.39z" data-name="Camada 1"/></g></symbol>
    <symbol viewBox="0 0 21.31 21.31" id="z-next" xmlns="http://www.w3.org/2000/svg"><g data-name="Camada 2"><path d="M21.31 10.66A10.29 10.29 0 0119.87 16 10.67 10.67 0 0116 19.87a10.29 10.29 0 01-5.32 1.44 10.32 10.32 0 01-5.33-1.44A10.75 10.75 0 011.44 16 10.29 10.29 0 010 10.66a10.32 10.32 0 011.44-5.33 10.82 10.82 0 013.89-3.89A10.32 10.32 0 0110.66 0 10.29 10.29 0 0116 1.44a10.75 10.75 0 013.89 3.89 10.32 10.32 0 011.42 5.33zm-19.25 0A8.35 8.35 0 003.22 15a8.67 8.67 0 003.14 3.14 8.53 8.53 0 008.59 0A8.6 8.6 0 0018.09 15a8.53 8.53 0 000-8.59A8.67 8.67 0 0015 3.22a8.53 8.53 0 00-8.59 0 8.75 8.75 0 00-3.19 3.14 8.38 8.38 0 00-1.16 4.3zm3.1.86a.51.51 0 00.51.51h5v2.88a.45.45 0 00.32.47.48.48 0 00.58-.13L15.81 11a.58.58 0 00.13-.38.59.59 0 00-.13-.39L11.52 6a.45.45 0 00-.52-.07.46.46 0 00-.32.47v2.88h-5a.49.49 0 00-.36.15.5.5 0 00-.15.37z" data-name="Camada 1"/></g></symbol>
    <symbol viewBox="0 0 18.69 18.7" id="z-phone" xmlns="http://www.w3.org/2000/svg"><g data-name="Camada 2"><path d="M15.9 2.71a9.53 9.53 0 012.06 3 8.71 8.71 0 01.73 3.52 8.87 8.87 0 01-1.27 4.64A9.63 9.63 0 0114 17.28a9.11 9.11 0 01-4.65 1.25 9.07 9.07 0 01-4.43-1.13L0 18.7l1.34-4.8A9 9 0 01.08 9.26a8.92 8.92 0 011.26-4.63 9.36 9.36 0 013.38-3.38 9.15 9.15 0 018.15-.54 9.69 9.69 0 013.03 2zM9.35 17a7.55 7.55 0 003.88-1 7.89 7.89 0 002.86-2.82 7.33 7.33 0 001.06-3.86 7.14 7.14 0 00-.63-2.92 8.16 8.16 0 00-1.73-2.52 7.63 7.63 0 00-2.5-1.69 7.53 7.53 0 00-2.94-.59 7.44 7.44 0 00-3.86 1 7.83 7.83 0 00-2.82 2.8 7.55 7.55 0 00-1 3.86 7.36 7.36 0 001.21 4.09l.16.3-.79 2.83 2.92-.75.29.17A7.5 7.5 0 009.35 17zm4.21-5.8l.13.09a.7.7 0 01.33.21.89.89 0 010 .41 2.16 2.16 0 01-.16.69 1.75 1.75 0 01-.67.71 2.13 2.13 0 01-.9.4 4.27 4.27 0 01-1.13 0 9.25 9.25 0 01-1.67-.59 9.48 9.48 0 01-3.86-3.44l-.08-.08a4.24 4.24 0 01-.92-2.38 2.65 2.65 0 01.75-1.88.88.88 0 01.67-.34h.5a.54.54 0 01.27.06.61.61 0 01.18.32l.71 1.71a.46.46 0 010 .42 2.87 2.87 0 01-.54.75 1 1 0 00-.17.27c0 .07 0 .15.08.23a5.24 5.24 0 001.38 1.71 10.34 10.34 0 001.75 1c.23.11.39.09.5 0 .37-.42.62-.73.76-.92s.12-.17.2-.17a1.13 1.13 0 01.3 0c.23.14.76.39 1.59.8z" data-name="Camada 1"/></g></symbol>
    <symbol viewBox="0 0 21.31 21.31" id="z-prev" xmlns="http://www.w3.org/2000/svg"><g data-name="Camada 2"><path d="M0 10.66a10.32 10.32 0 011.44-5.33 10.82 10.82 0 013.89-3.89A10.32 10.32 0 0110.66 0 10.29 10.29 0 0116 1.44a10.75 10.75 0 013.89 3.89 10.32 10.32 0 011.44 5.33A10.29 10.29 0 0119.87 16 10.67 10.67 0 0116 19.87a10.29 10.29 0 01-5.32 1.44 10.32 10.32 0 01-5.33-1.44A10.75 10.75 0 011.44 16 10.29 10.29 0 010 10.66zm19.25 0a8.38 8.38 0 00-1.16-4.3A8.67 8.67 0 0015 3.22a8.53 8.53 0 00-8.59 0 8.75 8.75 0 00-3.19 3.14 8.53 8.53 0 000 8.59 8.67 8.67 0 003.14 3.14 8.53 8.53 0 008.59 0A8.6 8.6 0 0018.09 15a8.35 8.35 0 001.16-4.34zm-3.09-.86a.5.5 0 00-.16-.37.51.51 0 00-.37-.15h-5V6.4a.47.47 0 00-.33-.47.43.43 0 00-.5.07l-4.26 4.27a.54.54 0 00-.17.39.42.42 0 00.17.34l4.26 4.25a.41.41 0 00.53.13.46.46 0 00.33-.47V12h5a.51.51 0 00.37-.15.49.49 0 00.15-.36z" data-name="Camada 1"/></g></symbol>
    <symbol viewBox="0 0 16 16" id="z-search" xmlns="http://www.w3.org/2000/svg"><g data-name="Camada 2"><path d="M15.78 13.84a.76.76 0 010 1.07l-.87.87a.76.76 0 01-1.07 0l-3.12-3.12a.73.73 0 01-.22-.54v-.5a6.29 6.29 0 01-4 1.38 6.26 6.26 0 01-3.27-.88A6.56 6.56 0 01.87 9.77 6.35 6.35 0 010 6.5a6.35 6.35 0 01.87-3.27A6.56 6.56 0 013.23.88 6.26 6.26 0 016.5 0a6.26 6.26 0 013.27.88 6.46 6.46 0 012.35 2.35A6.26 6.26 0 0113 6.5a6.29 6.29 0 01-1.38 4h.5a.73.73 0 01.54.22zM6.5 10.5A4 4 0 008.52 3a4 4 0 00-4 6.94 4 4 0 001.98.56z" data-name="Camada 1"/></g></symbol>
    <symbol viewBox="0 0 19.37 19.38" id="z-user" xmlns="http://www.w3.org/2000/svg"><g data-name="Camada 2"><path d="M9.69 3.75a3.6 3.6 0 012.65 1.09 3.63 3.63 0 011.1 2.66 3.63 3.63 0 01-1.1 2.66 3.6 3.6 0 01-2.65 1.09A3.72 3.72 0 015.94 7.5a3.72 3.72 0 013.75-3.75zm0 5.63a1.88 1.88 0 100-3.76 1.83 1.83 0 00-1.33.55 1.88 1.88 0 000 2.66 1.83 1.83 0 001.33.55zm0-9.38a9.4 9.4 0 014.84 1.31 9.82 9.82 0 013.54 3.53 9.43 9.43 0 011.3 4.85 9.39 9.39 0 01-1.3 4.84 9.85 9.85 0 01-3.54 3.54 9.4 9.4 0 01-4.84 1.31 9.44 9.44 0 01-4.85-1.31 9.82 9.82 0 01-3.53-3.54A9.4 9.4 0 010 9.69a9.44 9.44 0 011.31-4.85 9.79 9.79 0 013.53-3.53A9.44 9.44 0 019.69 0zm0 17.5a7.55 7.55 0 002.73-.5 7.89 7.89 0 002.35-1.39 3.34 3.34 0 00-1.16-1.11 3.48 3.48 0 00-1.54-.45 7.67 7.67 0 01-2.36.39 7.73 7.73 0 01-2.37-.39 3.57 3.57 0 00-1.58.45 3.31 3.31 0 00-1.15 1.11A7.72 7.72 0 007 17a7.57 7.57 0 002.69.5zm6.36-3.28a7.62 7.62 0 001.45-4.53 7.62 7.62 0 00-1.05-3.91 7.89 7.89 0 00-2.86-2.85 7.58 7.58 0 00-3.9-1.05 7.62 7.62 0 00-3.91 1.05 7.79 7.79 0 00-2.85 2.85 7.77 7.77 0 00.39 8.44 5.48 5.48 0 011.82-1.49 5 5 0 012.28-.54 2.56 2.56 0 01.58.11 5.92 5.92 0 001.72.28 6 6 0 001.72-.28 2.62 2.62 0 01.54-.11 5 5 0 012.29.54 5.44 5.44 0 011.78 1.49z" data-name="Camada 1"/></g></symbol>
</svg>